:SAMPLES-PER-SECOND 30
:FULLY-SPECIFIED
:DEGREES
161
root  -8.62243 39.2052 19.7964 173.215 65.681 175.521
RightUpLeg  -14.1006 -7.50895 -7.41922
RightLeg  11.6041 -9.15123 -2.29295
RightFoot  6.92121 -1.29936 8.36625
RightToes  -1.74624e-010 0 -3.6325e-017
Spine  9.9559 0.176601 -13.5609
Spine1  23.6448 -1.28877 -0.277262
HEad  -27.8281 47.0511 -17.8304
LeftShoulder1  1.99276 -4.83585 -17.2434
LeftArm  6.5557 0.658974 -54.4366
LeftForeArm  -21.5817 -72.9923 -46.1689
LeftHand  -0.77091 2.7794 33.7659
RightShoulder  1.03732 1.32983 14.6794
RightArm  3.31803 -11.9699 59.9737
RightForeArm  6.25668 36.9566 8.06692
RightHand  -0.652348 3.42768 -8.82221
LeftUpLeg  -2.31788 1.25829 -0.0653578
LeftLeg  21.0503 11.8599 5.32263
LeftFoot  -14.195 -0.0145025 -3.99501
LeftToes  -5.82109e-011 1.10366e-010 -8.03124e-011
162
root  -8.57492 39.1382 19.7861 173.235 66.2422 175.707
RightUpLeg  -14.5425 -7.1926 -7.18262
RightLeg  12.694 -8.81989 -2.45276
RightFoot  6.37304 -1.26071 8.35763
RightToes  -1.74624e-010 0 -3.6325e-017
Spine  10.1267 0.194783 -13.6696
Spine1  23.3651 -1.32049 -0.25872
HEad  -27.9289 47.609 -17.8968
LeftShoulder1  1.96097 -4.7302 -17.1568
LeftArm  7.34246 0.999656 -54.7134
LeftForeArm  -26.8999 -71.6741 -41.9088
LeftHand  -0.805711 2.69608 34.1761
RightShoulder  1.05309 1.42174 14.5894
RightArm  3.24832 -12.3615 60.0971
RightForeArm  6.16837 36.8451 8.03945
RightHand  -0.635266 3.36659 -8.65457
LeftUpLeg  -2.39812 1.66212 0.122835
LeftLeg  21.9009 11.8936 5.54774
LeftFoot  -14.7254 -0.0355351 -4.18832
LeftToes  -5.82109e-011 1.10366e-010 -8.03124e-011
163
root  -8.51987 39.0539 19.7796 173.022 66.835 175.76
RightUpLeg  -15.0086 -6.75677 -7.01684
RightLeg  14.0863 -8.52471 -2.65302
RightFoot  5.64469 -1.21776 8.40108
RightToes  -1.74624e-010 0 -3.6325e-017
Spine  10.2981 0.227349 -13.8879
Spine1  23.2354 -1.35641 -0.231803
HEad  -28.0333 48.2519 -18.0157
LeftShoulder1  1.95167 -4.72499 -17.0504
LeftArm  8.24677 1.11025 -54.9986
LeftForeArm  -33.1106 -69.7826 -37.077
LeftHand  -0.816175 2.6741 34.3299
RightShoulder  1.04865 1.36443 14.7679
RightArm  3.48303 -12.4714 59.9975
RightForeArm  5.90032 36.6565 8.00032
RightHand  -0.637833 3.35744 -8.69669
LeftUpLeg  -2.39843 2.02041 0.256252
LeftLeg  22.878 12.0343 5.85471
LeftFoot  -15.3265 -0.0610763 -4.39324
LeftToes  -5.82109e-011 1.10366e-010 -8.03124e-011
164
root  -8.45891 38.9529 19.782 172.817 67.3772 175.918
RightUpLeg  -15.4453 -6.16415 -6.84968
RightLeg  15.6792 -8.41094 -2.89258
RightFoot  4.77654 -1.17939 8.54675
RightToes  -1.74624e-010 0 -3.6325e-017
Spine  10.5102 0.225651 -14.1799
Spine1  23.2002 -1.48245 -0.110479
HEad  -28.2343 48.8894 -18.3238
LeftShoulder1  1.94565 -4.75558 -16.8759
LeftArm  9.26741 1.02739 -55.3632
LeftForeArm  -39.129 -67.4163 -32.4188
LeftHand  -0.797181 2.7278 34.2178
RightShoulder  1.03477 1.28734 14.8313
RightArm  3.6958 -12.3996 60.0633
RightForeArm  5.68895 36.301 7.9095
RightHand  -0.645933 3.37986 -8.78216
LeftUpLeg  -2.38836 2.40569 0.473146
LeftLeg  24.0288 12.0558 6.15765
LeftFoot  -16.0241 -0.0941992 -4.64862
LeftToes  -5.82109e-011 1.10366e-010 -8.03124e-011
165
root  -8.39446 38.8293 19.7856 172.77 67.8432 176.226
RightUpLeg  -15.9795 -5.65187 -6.64974
RightLeg  17.4718 -8.29728 -3.12722
RightFoot  3.8058 -1.13413 8.71023
RightToes  -1.74624e-010 0 -3.6325e-017
Spine  10.7191 0.179042 -14.4458
Spine1  23.145 -1.67409 0.0571799
HEad  -28.4701 49.4717 -18.7038
LeftShoulder1  1.92444 -4.78856 -16.4961
LeftArm  10.2878 0.73485 -56.1195
LeftForeArm  -44.86 -64.6335 -28.2271
LeftHand  -0.782859 2.77925 34.2685
RightShoulder  1.0252 1.27922 14.6492
RightArm  3.63046 -12.3306 60.4232
RightForeArm  5.64692 35.7831 7.76297
RightHand  -0.648838 3.429 -8.77902
LeftUpLeg  -2.52231 2.81576 0.774994
LeftLeg  25.4271 11.8586 6.42373
LeftFoot  -16.8522 -0.138701 -4.97601
LeftToes  -5.82109e-011 1.10366e-010 -8.03124e-011
